<?xml version="1.0" standalone="no"?>
<!DOCTYPE svg PUBLIC "-//W3C//DTD SVG 20010904//EN"
 "http://www.w3.org/TR/2001/REC-SVG-20010904/DTD/svg10.dtd">
<svg version="1.0" xmlns="http://www.w3.org/2000/svg"
 width="68.000000pt" height="90.000000pt" viewBox="0 0 68.000000 90.000000"
 preserveAspectRatio="xMidYMid meet">

<g transform="translate(0.000000,90.000000) scale(0.100000,-0.100000)"
fill="#000000" stroke="none">
<path d="M267 849 c-21 -11 -42 -17 -48 -13 -6 3 -9 0 -8 -7 4 -25 -13 -49
-35 -50 -16 -1 -17 -2 -3 -6 27 -7 23 -61 -5 -73 l-23 -9 23 0 c24 -1 27 -14
16 -70 -4 -18 -13 -31 -21 -31 -9 0 -13 6 -10 14 3 7 0 19 -6 25 -9 9 -8 14 2
21 12 7 12 11 -2 25 -10 9 -17 21 -17 26 0 5 -11 9 -25 9 -17 0 -29 -8 -37
-25 -6 -13 -14 -22 -19 -20 -4 3 -10 1 -14 -5 -3 -5 -1 -10 4 -10 6 0 11 -13
11 -30 0 -22 -4 -28 -15 -24 -8 4 -15 1 -15 -5 0 -6 7 -11 15 -11 8 0 15 -7
15 -15 0 -8 -4 -15 -10 -15 -5 0 -10 -4 -10 -10 0 -5 9 -10 21 -10 12 0 23 -8
26 -19 3 -13 11 -17 24 -14 11 3 19 0 19 -6 0 -7 6 -11 13 -10 32 4 57 -2 57
-15 0 -8 -6 -17 -12 -20 -10 -5 -10 -7 0 -12 18 -8 16 -64 -3 -64 -8 0 -15 -4
-15 -10 0 -5 7 -7 15 -4 11 5 15 -1 15 -20 0 -23 -4 -26 -32 -26 -18 0 -38 -4
-45 -8 -16 -10 -27 -78 -14 -87 15 -8 56 -91 65 -130 13 -51 21 -55 125 -55
53 0 102 4 109 9 8 4 17 39 22 77 7 56 13 72 34 86 29 22 43 72 26 93 -7 8
-28 15 -46 15 -30 0 -34 3 -34 25 0 25 13 30 60 26 9 -1 34 5 57 13 23 8 44
12 47 9 3 -3 17 9 32 26 15 18 33 30 40 27 8 -3 14 -1 14 4 0 6 -4 10 -10 10
-5 0 -10 9 -10 20 0 11 5 20 10 20 6 0 10 5 10 10 0 6 -6 10 -13 10 -16 0 -40
62 -27 70 5 3 -11 10 -35 16 -40 9 -47 8 -65 -11 -17 -19 -19 -26 -9 -53 14
-39 2 -58 -41 -64 -42 -6 -58 6 -43 31 7 11 8 21 3 23 -5 2 -6 18 -1 41 5 21
5 37 0 37 -16 0 -9 39 9 49 16 10 16 10 0 11 -11 0 -18 8 -18 20 0 12 7 20 18
21 13 0 12 2 -5 9 -27 11 -31 40 -5 40 16 1 16 1 -1 11 -26 15 -50 66 -34 72
7 3 4 6 -6 6 -10 1 -30 7 -45 15 -24 12 -31 12 -65 -5z m75 -23 c33 -25 48
-82 54 -215 6 -116 5 -131 -9 -137 -23 -9 -21 -24 3 -24 11 0 20 -5 20 -10 0
-7 6 -7 19 0 11 5 28 10 38 10 11 0 27 6 37 13 20 15 29 78 12 89 -17 11 8 30
35 26 13 -2 23 -9 21 -16 -1 -6 4 -12 12 -12 22 0 33 -87 15 -119 -15 -27 -62
-42 -173 -56 l-48 -7 6 -43 c6 -34 4 -44 -9 -49 -21 -8 -94 -8 -134 0 l-31 7
0 103 0 104 -39 6 c-22 3 -53 15 -70 25 -26 16 -31 25 -31 56 0 54 18 113 35
113 15 0 22 -21 27 -74 3 -33 27 -52 52 -43 13 5 16 22 16 86 0 87 10 124 42
159 24 25 73 29 100 8z m-152 -552 c32 -13 62 -16 131 -12 50 3 96 11 102 17
20 20 47 13 47 -13 0 -57 -70 -81 -211 -73 -125 6 -160 26 -144 78 8 23 23 24
75 3z m215 -144 c-11 -87 -15 -90 -98 -90 -104 0 -115 5 -128 54 -6 22 -17 52
-24 66 l-13 25 135 0 135 0 -7 -55z"/>
<path d="M265 780 c-7 -12 2 -12 30 0 19 8 19 9 -2 9 -12 1 -25 -3 -28 -9z"/>
<path d="M300 741 c0 -4 11 -6 25 -3 14 2 25 6 25 8 0 2 -11 4 -25 4 -14 0
-25 -4 -25 -9z"/>
<path d="M320 700 c0 -5 5 -10 11 -10 5 0 7 5 4 10 -3 6 -8 10 -11 10 -2 0 -4
-4 -4 -10z"/>
<path d="M325 650 c-3 -5 -2 -10 4 -10 5 0 13 5 16 10 3 6 2 10 -4 10 -5 0
-13 -4 -16 -10z"/>
<path d="M265 610 c-3 -5 -2 -10 4 -10 5 0 13 5 16 10 3 6 2 10 -4 10 -5 0
-13 -4 -16 -10z"/>
<path d="M325 570 c3 -5 10 -10 16 -10 5 0 9 5 9 10 0 6 -7 10 -16 10 -8 0
-12 -4 -9 -10z"/>
<path d="M115 561 c-3 -5 2 -11 10 -15 8 -3 17 -1 20 3 3 5 -2 11 -10 15 -8 3
-17 1 -20 -3z"/>
<path d="M220 560 c0 -6 7 -10 15 -10 8 0 15 2 15 4 0 2 -7 6 -15 10 -8 3 -15
1 -15 -4z"/>
<path d="M330 530 c0 -5 7 -7 15 -4 8 4 15 8 15 10 0 2 -7 4 -15 4 -8 0 -15
-4 -15 -10z"/>
<path d="M168 523 c7 -3 16 -2 19 1 4 3 -2 6 -13 5 -11 0 -14 -3 -6 -6z"/>
<path d="M565 500 c-3 -5 -1 -10 4 -10 6 0 11 5 11 10 0 6 -2 10 -4 10 -3 0
-8 -4 -11 -10z"/>
<path d="M258 473 c6 -2 18 -2 25 0 6 3 1 5 -13 5 -14 0 -19 -2 -12 -5z"/>
<path d="M530 460 c0 -5 5 -10 10 -10 6 0 10 5 10 10 0 6 -4 10 -10 10 -5 0
-10 -4 -10 -10z"/>
<path d="M470 421 c0 -6 5 -13 10 -16 6 -3 10 1 10 9 0 9 -4 16 -10 16 -5 0
-10 -4 -10 -9z"/>
<path d="M545 420 c-19 -8 -19 -9 3 -9 12 -1 22 4 22 9 0 6 -1 10 -2 9 -2 0
-12 -4 -23 -9z"/>
<path d="M270 400 c0 -5 7 -10 16 -10 8 0 12 5 9 10 -3 6 -10 10 -16 10 -5 0
-9 -4 -9 -10z"/>
<path d="M380 400 c0 -5 10 -10 23 -10 18 0 19 2 7 10 -19 13 -30 13 -30 0z"/>
<path d="M320 359 c0 -5 5 -7 10 -4 6 3 10 8 10 11 0 2 -4 4 -10 4 -5 0 -10
-5 -10 -11z"/>
<path d="M238 303 c6 -2 18 -2 25 0 6 3 1 5 -13 5 -14 0 -19 -2 -12 -5z"/>
</g>
</svg>
