<?xml version="1.0" standalone="no"?>
<!DOCTYPE svg PUBLIC "-//W3C//DTD SVG 20010904//EN"
 "http://www.w3.org/TR/2001/REC-SVG-20010904/DTD/svg10.dtd">
<svg version="1.0" xmlns="http://www.w3.org/2000/svg"
 width="320.000000pt" height="320.000000pt" viewBox="0 0 320.000000 320.000000"
 preserveAspectRatio="xMidYMid meet">

<g transform="translate(0.000000,320.000000) scale(0.100000,-0.100000)"
fill="#000000" stroke="none">
<path d="M0 1600 l0 -1600 1600 0 1600 0 0 1600 0 1600 -1600 0 -1600 0 0
-1600z m1677 969 c10 0 13 -3 6 -6 -16 -6 8 -57 34 -72 17 -10 17 -10 1 -11
-26 0 -22 -29 5 -40 17 -7 18 -9 5 -9 -11 -1 -18 -9 -18 -21 0 -12 7 -20 18
-20 16 -1 16 -1 0 -11 -19 -11 -25 -49 -7 -49 5 0 8 -4 5 -8 -11 -19 -16 -72
-6 -72 6 0 5 -8 -2 -20 -16 -26 0 -38 42 -32 43 6 55 25 41 64 -10 27 -8 34 9
53 18 19 25 20 65 11 24 -6 40 -13 35 -16 -13 -8 11 -70 27 -70 7 0 13 -4 13
-10 0 -5 -4 -10 -10 -10 -5 0 -10 -9 -10 -20 0 -11 5 -20 10 -20 6 0 10 -4 10
-10 0 -5 -6 -7 -14 -4 -7 3 -24 -8 -37 -23 -14 -17 -36 -29 -52 -31 -15 -1
-37 -7 -48 -12 -11 -6 -27 -10 -37 -9 -49 4 -62 -1 -62 -26 0 -22 4 -25 34
-25 18 0 39 -7 46 -15 17 -21 3 -71 -26 -93 -21 -14 -27 -30 -34 -86 -5 -38
-14 -73 -22 -77 -22 -14 -204 -11 -215 4 -6 6 -18 35 -27 64 -10 29 -29 69
-42 89 -19 28 -24 43 -18 68 8 37 19 46 62 46 28 0 32 3 32 26 0 19 -4 25 -15
20 -8 -3 -15 -1 -15 4 0 6 7 10 15 10 19 0 21 56 3 64 -10 5 -10 7 0 12 6 3
12 12 12 20 0 13 -25 19 -57 15 -7 -1 -13 3 -13 10 0 6 -8 9 -19 6 -13 -3 -21
1 -24 14 -3 11 -14 19 -26 19 -12 0 -21 5 -21 10 0 6 5 10 10 10 6 0 10 7 10
15 0 8 -7 15 -15 15 -8 0 -15 5 -15 11 0 6 7 9 15 5 11 -4 15 2 15 24 0 17 -5
30 -11 30 -5 0 -7 5 -4 10 4 6 10 8 14 5 5 -2 13 7 19 20 8 17 20 25 37 25 14
0 25 -4 25 -9 0 -5 7 -17 17 -26 14 -14 14 -18 2 -25 -10 -7 -11 -12 -2 -21 6
-6 9 -18 6 -25 -3 -8 1 -14 10 -14 8 0 17 13 21 31 11 56 8 69 -16 70 l-23 0
23 9 c28 12 32 66 5 73 -14 4 -13 5 3 6 22 1 39 25 35 50 -1 7 2 10 8 7 6 -4
27 2 48 13 34 17 41 17 65 5 15 -8 35 -14 45 -15z m-647 -839 c32 -32 98 -173
141 -299 41 -124 45 -146 28 -157 -16 -10 -33 14 -59 81 -13 33 -27 64 -31 69
-13 15 -170 35 -174 22 -25 -98 -63 -210 -72 -214 -31 -9 1 245 46 372 27 77
68 146 86 146 8 0 24 -9 35 -20z m1353 -65 c22 -22 28 -78 19 -195 -13 -164
-54 -220 -162 -220 -96 0 -143 63 -160 212 -14 119 -13 148 6 155 24 9 34 -15
34 -89 0 -150 41 -228 118 -228 45 0 84 26 107 70 18 34 20 195 4 253 -14 53
2 74 34 42z m262 -9 c18 -13 14 -15 -43 -31 -80 -23 -112 -47 -112 -86 0 -23
7 -32 38 -48 20 -10 53 -22 72 -26 116 -25 149 -81 88 -150 -45 -52 -130 -93
-157 -76 -22 14 4 46 57 69 59 26 76 44 68 75 -6 25 -44 46 -124 68 -94 27
-120 94 -60 158 53 56 131 78 173 47z m-595 -15 c0 -19 -36 -36 -89 -41 l-56
-5 -3 -65 c-2 -47 4 -91 24 -163 20 -71 25 -103 18 -115 -41 -65 -88 49 -103
252 l-6 81 -113 9 c-95 8 -112 12 -110 25 3 13 26 17 138 21 238 10 300 10
300 1z m-1349 -27 c11 -9 19 -26 19 -37 0 -20 0 -20 -23 1 -51 48 -119 10
-151 -85 -20 -59 -20 -96 0 -138 30 -65 91 -83 174 -55 77 27 102 26 98 -2 -8
-56 -151 -78 -236 -37 -83 41 -120 139 -88 237 40 119 141 176 207 116z m753
5 c14 -11 26 -30 26 -41 l0 -21 -23 21 c-34 32 -70 28 -105 -12 -64 -74 -75
-177 -25 -237 38 -44 89 -54 160 -29 71 25 106 26 101 4 -5 -26 -54 -57 -100
-64 -98 -14 -183 27 -222 105 -29 58 -26 121 10 191 47 95 120 129 178 83z
m450 -478 c-18 -30 -34 -40 -34 -22 0 12 41 63 47 57 3 -2 -3 -18 -13 -35z
m-374 -63 c21 -35 73 -165 84 -210 11 -47 -19 -33 -38 17 -10 25 -23 45 -29
45 -7 0 -28 3 -49 6 l-36 6 -18 -61 c-20 -72 -34 -87 -34 -37 0 91 57 266 87
266 7 0 22 -15 33 -32z m448 3 c16 -9 16 -10 -1 -17 -10 -3 -40 -4 -66 0 -48
6 -49 6 -54 -24 -10 -49 -1 -60 54 -60 38 0 49 -4 49 -16 0 -11 -8 -15 -27
-13 -63 5 -66 2 -60 -42 8 -60 19 -65 63 -35 64 43 92 28 32 -17 -63 -47 -78
-51 -100 -30 -20 20 -47 143 -48 216 0 20 -5 37 -11 37 -5 0 -7 5 -3 11 8 13
145 5 172 -10z m-198 -30 c0 -6 -24 -11 -52 -13 -52 -3 -53 -4 -56 -35 l-3
-33 55 0 c30 0 58 -5 61 -10 7 -12 -36 -30 -71 -30 -29 0 -30 -15 -4 -55 24
-36 25 -55 5 -55 -23 0 -43 40 -67 134 -20 76 -21 88 -8 96 20 13 140 13 140
1z m-458 -18 c10 -9 18 -21 18 -26 0 -6 -9 -2 -19 7 -24 22 -54 9 -76 -34 -23
-44 -19 -87 10 -115 28 -29 43 -30 88 -12 18 8 37 12 44 10 23 -8 1 -33 -37
-43 -74 -20 -150 35 -150 109 0 33 36 96 62 108 32 16 39 15 60 -4z"/>
<path d="M1542 2548 c-32 -35 -42 -72 -42 -159 0 -64 -3 -81 -16 -86 -25 -9
-49 10 -52 43 -5 53 -12 74 -27 74 -17 0 -35 -59 -35 -113 0 -31 5 -40 31 -56
17 -10 48 -22 70 -25 l39 -6 0 -104 0 -103 31 -7 c40 -8 113 -8 134 0 13 5 15
15 9 49 l-6 43 48 7 c111 14 158 29 173 56 18 32 7 119 -15 119 -8 0 -13 6
-12 12 4 16 -41 23 -56 8 -8 -8 -8 -13 0 -18 6 -4 10 -22 9 -41 -2 -36 -26
-61 -58 -61 -10 0 -27 -5 -38 -10 -13 -7 -19 -7 -19 0 0 5 -9 10 -20 10 -24 0
-26 15 -3 24 14 6 15 21 10 136 -9 176 -32 229 -103 230 -19 0 -38 -8 -52 -22z
m53 -38 c-27 -12 -35 -12 -35 0 0 6 12 10 28 9 24 0 25 -1 7 -9z m55 -34 c0
-2 -11 -6 -25 -8 -14 -3 -25 -1 -25 3 0 5 11 9 25 9 14 0 25 -2 25 -4z m-15
-46 c3 -5 1 -10 -4 -10 -6 0 -11 5 -11 10 0 6 2 10 4 10 3 0 8 -4 11 -10z m10
-50 c-3 -5 -11 -10 -16 -10 -6 0 -7 5 -4 10 3 6 11 10 16 10 6 0 7 -4 4 -10z
m-65 -40 c0 -5 -5 -10 -11 -10 -5 0 -7 5 -4 10 3 6 8 10 11 10 2 0 4 -4 4 -10z
m70 -40 c0 -5 -4 -10 -9 -10 -6 0 -13 5 -16 10 -3 6 1 10 9 10 9 0 16 -4 16
-10z m-205 -21 c-3 -4 -12 -6 -20 -3 -8 4 -13 10 -10 15 3 4 12 6 20 3 8 -4
13 -10 10 -15z m105 5 c0 -2 -7 -4 -15 -4 -8 0 -15 4 -15 10 0 5 7 7 15 4 8
-4 15 -8 15 -10z m110 -18 c0 -2 -7 -6 -15 -10 -8 -3 -15 -1 -15 4 0 6 7 10
15 10 8 0 15 -2 15 -4z m-173 -12 c-3 -3 -12 -4 -19 -1 -8 3 -5 6 6 6 11 1 17
-2 13 -5z m393 -24 c0 -5 -5 -10 -11 -10 -5 0 -7 5 -4 10 3 6 8 10 11 10 2 0
4 -4 4 -10z m-297 -27 c-7 -2 -19 -2 -25 0 -7 3 -2 5 12 5 14 0 19 -2 13 -5z
m267 -13 c0 -5 -4 -10 -10 -10 -5 0 -10 5 -10 10 0 6 5 10 10 10 6 0 10 -4 10
-10z m-60 -46 c0 -8 -4 -12 -10 -9 -5 3 -10 10 -10 16 0 5 5 9 10 9 6 0 10 -7
10 -16z m80 6 c0 -5 -10 -10 -22 -9 -22 0 -22 1 -3 9 11 5 21 9 23 9 1 1 2 -3
2 -9z m-275 -20 c3 -5 -1 -10 -9 -10 -9 0 -16 5 -16 10 0 6 4 10 9 10 6 0 13
-4 16 -10z m115 0 c12 -8 11 -10 -7 -10 -13 0 -23 5 -23 10 0 13 11 13 30 0z
m-70 -34 c0 -3 -4 -8 -10 -11 -5 -3 -10 -1 -10 4 0 6 5 11 10 11 6 0 10 -2 10
-4z m-77 -63 c-7 -2 -19 -2 -25 0 -7 3 -2 5 12 5 14 0 19 -2 13 -5z"/>
<path d="M1415 2001 c-16 -52 19 -72 144 -78 141 -8 211 16 211 73 0 26 -27
33 -47 13 -6 -6 -52 -14 -102 -17 -69 -4 -99 -1 -131 12 -52 21 -67 20 -75 -3z"/>
<path d="M1455 1890 c7 -14 18 -44 24 -66 13 -49 24 -54 128 -54 83 0 87 3 98
90 l7 55 -135 0 -135 0 13 -25z"/>
<path d="M980 1615 c-33 -99 -19 -124 68 -125 28 0 32 3 32 27 0 29 -58 163
-71 163 -4 0 -17 -29 -29 -65z"/>
<path d="M1492 1050 c-18 -50 -19 -55 -10 -72 5 -10 20 -18 33 -18 31 0 33 29
5 80 l-18 35 -10 -25z"/>
</g>
</svg>
